# AST/ASF file generated using VICON BodyLanguage
# -----------------------------------------------
:version 1.10
:name VICON
:units
  mass 1.0
  length 0.45
  angle deg
:documentation
   .ast/.asf automatically generated from VICON data using
   VICON BodyBuilder and BodyLanguage model FoxedUp or BRILLIANT.MOD
:root
   order TX TY TZ RX RY RZ
   axis XYZ
   position 0 0 0  
   orientation 0 -0 0 
:bonedata
  begin
     id 1 
     name lhipjoint
     direction 0.515797 -0.759363 0.396637 
     length 2.47888 
     axis 0 -0 0  XYZ
  end
  begin
     id 2 
     name lfemur
     direction 0.34202 -0.939693 0  
     length 6.81885  
     axis 0 -0 20  XYZ
    dof rx ry rz
    limits (-160.0 20.0)
           (-70.0 70.0)
           (-60.0 70.0)
  end
  begin
     id 3 
     name ltibia
     direction 0.342037 -0.939687 0   
     length 7.89258   
     axis 0 -0 20   XYZ
    dof rx
    limits (-10.0 170.0)
  end
  begin
     id 4 
     name lfoot
     direction 0.173497 -0.476678 0.861787   
     length 2.51543   
     axis -90 -1.13533e-015 20   XYZ
    dof rx rz
    limits (-45.0 90.0)
           (-70.0 20.0)
  end
  begin
     id 5 
     name ltoes
     direction 1.53564e-011 -4.21897e-011 1   
     length 1.21388   
     axis -90 -1.13533e-015 20   XYZ
    dof rx
    limits (-90.0 20.0)
  end
  begin
     id 6 
     name rhipjoint
     direction -0.489454 -0.772941 0.403729   
     length 2.43534  
     axis 0 -0 0  XYZ 
  end
  begin
     id 7 
     name rfemur
     direction -0.34202 -0.939693 0   
     length 7.10357   
     axis 0 -0 -20   XYZ
    dof rx ry rz
    limits (-160.0 20.0)
           (-70.0 70.0)
           (-70.0 60.0)
  end
  begin
     id 8 
     name rtibia
     direction -0.34202 -0.939693 0   
     length 9.16127   
     axis 0 -0 -20   XYZ
    dof rx
    limits (-10.0 170.0)
 end
 begin
     id 9 
     name rfoot
     direction -0.270974 -0.748671 0.605033   
     length 1.74894  
     axis -90 1.13533e-015 -20   XYZ
    dof rx rz
    limits (-45.0 90.0)
           (-20.0 70.0)
  end
  begin
     id 10 
     name rtoes
     direction -1.53557e-011 -4.21759e-011 1   
     length 0.787585   
     axis -90 1.13533e-015 -20   XYZ
    dof rx
    limits (-90.0 20.0)
  end
  begin
     id 11 
     name lowerback
     direction -0.0140249 0.999561 0.0260968   
     length 2.16963   
     axis 0 -0 0   XYZ
    dof rx ry rz
    limits (-20.0 45.0)
           (-30.0 30.0)
           (-30.0 30.0)
  end
  begin
     id 12 
     name upperback
     direction 0.00860018 0.999959 -0.002711   
     length 2.1726   
     axis 0 -0 0   XYZ
    dof rx ry rz
    limits (-20.0 45.0)
           (-30.0 30.0)
           (-30.0 30.0)
  end
  begin
     id 13 
     name thorax
     direction 0.015211 0.999782 -0.0143191   
     length 2.17061   
     axis 0 -0 0   XYZ
    dof rx ry rz
    limits (-20.0 45.0)
           (-30.0 30.0)
           (-30.0 30.0)
  end
  begin
     id 14 
     name lowerneck
     direction -0.0140143 0.999447 0.030145   
     length 2.26749   
     axis 0 -0 0   XYZ
    dof rx ry rz
    limits (-20.0 45.0)
           (-30.0 30.0)
           (-30.0 30.0)
  end
  begin
     id 15 
     name upperneck
     direction 0.118062 0.961438 -0.248392   
     length 2.22728   
     axis 0 -0 0   XYZ
    dof rx ry rz
    limits (-20.0 45.0)
           (-30.0 30.0)
           (-30.0 30.0)
  end
  begin
     id 16
     name head
     direction 0.0431885 0.9954 -0.085514  
     length 2.28786  
     axis 0 -0 0   XYZ
    dof rx ry rz
    limits (-20.0 45.0)
           (-30.0 30.0)
           (-30.0 30.0)
  end
  begin
     id 17 
     name lclavicle
     direction 0.912126 0.409548 0.0172323  
     length 4.31571  
     axis 0 -0 0   XYZ
    dof ry rz
    limits (-20.0 10.0)
           (0.0 20.0)
  end
  begin
     id 18 
     name lhumerus
     direction 1 -4.48977e-011 1.93091e-027   
     length 5.13658   
     axis 180 -30 -90   XYZ
    dof rx ry rz
    limits (-60.0 90.0)
           (-90.0 90.0)
           (-90.0 90.0)
  end
  begin
     id 19
     name lradius
     direction 1 -4.48916e-011 6.84018e-027   
     length 3.22473   
     axis 180 -30 -90   XYZ
    dof rx
    limits (-10.0 170.0)
  end
  begin
     id 20
     name lwrist
     direction 1 -4.48987e-011 7.01981e-027   
     length 1.61236   
     axis -4.37994e-015 90 90   XYZ
    dof ry
    limits (-180.0 0.0)
 end
  begin
     id 21 
     name lhand
     direction 1 -4.49037e-011 1.40335e-026   
     length 0.936406   
     axis -8.96029e-015 90 90   XYZ
    dof rx rz
    limits (-90.0 90.0)
           (-45.0 45.0)
  end
  begin
     id 22 
     name lfingers
     direction 1 -4.48886e-011 2.8104e-026   
     length 0.754955   
     axis -1.79203e-014 90 90   XYZ
    dof rx
    limits (0.0 90.0)
  end
  begin
     id 23
     name lthumb
     direction 0.707107 -6.34937e-011 0.707107   
     length 1.08397   
     axis -90 45 -4.48555e-014   XYZ
    dof rx rz
    limits (-45.0 45.0)
           (-45.0 45.0)
  end
  begin
     id 24 
     name rclavicle
     direction -0.947962 0.317997 0.0156638   
     length 4.86918  
     axis 0 -0 0   XYZ 
    dof ry rz
    limits (-10.0 20.0)
           (-20.0 0.0)
  end
  begin
     id 25 
     name rhumerus
     direction -1 -4.48951e-011 2.80534e-018  
     length 5.60911   
     axis 180 30 90   XYZ
    dof rx ry rz
    limits (-90.0 60.0)
           (-90.0 90.0)
           (-90.0 90.0)
  end
  begin
     id 26 
     name rradius
     direction -1 -4.4898e-011 2.11315e-027   
     length 3.38704   
     axis 180 30 90   XYZ
    dof rx
    limits (-10.0 170.0)
  end
  begin
     id 27 
     name rwrist
     direction -1 -4.48933e-011 7.02314e-027   
     length 1.69352   
     axis -4.37994e-015 -90 -90   XYZ
    dof ry
    limits (-180.0 0.0)
  end
  begin
     id 28
     name rhand
     direction -1 -4.48937e-011 1.40458e-026   
     length 0.755878   
     axis -8.96029e-015 -90 -90   XYZ
    dof rx rz
    limits (-90.0 90.0)
           (-45.0 45.0)
  end
  begin
     id 29
     name rfingers
     direction -1 -4.4901e-011 2.80737e-026   
     length 0.609409   
     axis -1.79203e-014 -90 -90   XYZ
    dof rx
    limits (0.0 90.0)
  end
  begin
     id 30
     name rthumb
     direction -0.707107 -6.34968e-011 0.707107   
     length 0.874992   
     axis -90 -45 4.48555e-014   XYZ
    dof rx rz
    limits (-45.0 45.0)
           (-45.0 45.0)
  end
:hierarchy
  begin
    root lhipjoint rhipjoint lowerback
    lhipjoint lfemur
    lfemur ltibia
    ltibia lfoot
    lfoot ltoes
    rhipjoint rfemur
    rfemur rtibia
    rtibia rfoot
    rfoot rtoes
    lowerback upperback
    upperback thorax
    thorax lowerneck lclavicle rclavicle
    lowerneck upperneck
    upperneck head
    lclavicle lhumerus
    lhumerus lradius
    lradius lwrist
    lwrist lhand lthumb
    lhand lfingers
    rclavicle rhumerus
    rhumerus rradius
    rradius rwrist
    rwrist rhand rthumb
    rhand rfingers
  end

#!OML:ASF C:\ViconDB\ViconDB\414\Spring2016\041811\Spring2016.ASF
:FULLY-SPECIFIED
:DEGREES
61
root 12.1786 18.2374 5.94311 -177.347 -7.14441 -177.607
lowerback -5.25623 0.91751 -1.11472
upperback 1.10198 1.26321 0.829277
thorax 4.04332 0.589181 1.59116
lowerneck -12.9937 3.38814 -4.24112
upperneck 25.0915 1.92471 10.1018
head 9.90886 1.16531 4.4485
rclavicle 2.36181e-014 1.98785e-016
rhumerus -40.942 -18.4614 -84.404
rradius 31.3977
rwrist 51.0425
rhand -35.0068 -11.906
rfingers 7.12502
rthumb -8.15137 -41.7288
lclavicle 2.36181e-014 1.98785e-016
lhumerus -37.2799 -2.35358 90.8331
lradius 24.9921
lwrist -35.7672
lhand -25.2371 13.2018
lfingers 7.12502
lthumb 1.28258 43.1777
rfemur 170.355 63.4642 -163.581
rtibia 27.8006
rfoot -69.3658 -40.0872
rtoes -30.6172
lfemur -9.23967 -7.91303 -16.8966
ltibia 25.3976
lfoot -21.9979 7.44827
ltoes -12.3155
62
root 12.1739 18.2365 5.9376 -177.35 -7.12934 -177.61
lowerback -5.26527 0.931973 -1.0998
upperback 1.11437 1.28304 0.799545
thorax 4.06156 0.599621 1.55413
lowerneck -13.0143 3.38503 -4.14326
upperneck 25.1156 1.90973 10.039
head 9.92601 1.16055 4.40906
rclavicle -2.05121e-014 -6.75868e-015
rhumerus -40.9461 -18.4734 -84.4555
rradius 31.4171
rwrist 50.9412
rhand -35.0292 -11.8381
rfingers 7.12502
rthumb -8.17292 -41.66
lclavicle -2.05121e-014 -6.75868e-015
lhumerus -37.2425 -2.23122 90.7313
lradius 24.9326
lwrist -35.9558
lhand -25.2702 13.2295
lfingers 7.12502
lthumb 1.25062 43.2056
rfemur 170.302 63.4548 -163.64
rtibia 27.8067
rfoot -69.3738 -40.073
rtoes -30.8923
lfemur -9.21133 -7.87154 -16.9173
ltibia 25.3983
lfoot -22.0119 7.42854
ltoes -12.319
63
root 12.1697 18.2356 5.9319 -177.331 -7.12626 -177.593
lowerback -5.27818 0.922941 -1.09884
upperback 1.11174 1.27103 0.79937
thorax 4.06656 0.593644 1.55262
lowerneck -13.0284 3.40929 -4.12272
upperneck 25.1205 1.93041 10.0676
head 9.92872 1.17522 4.41865
rclavicle -6.21202e-016 -1.03368e-014
rhumerus -40.9419 -18.516 -84.4516
rradius 31.3984
rwrist 50.9628
rhand -35.0658 -11.7254
rfingers 7.12502
rthumb -8.20832 -41.5459
lclavicle -6.21202e-016 -1.03368e-014
lhumerus -37.2116 -1.95317 90.5807
lradius 24.8847
lwrist -36.2527
lhand -25.1786 13.192
lfingers 7.12502
lthumb 1.33906 43.1675
rfemur 170.292 63.4287 -163.645
rtibia 27.81
rfoot -69.2997 -40.0756
rtoes -30.5995
lfemur -9.21347 -7.83345 -16.9114
ltibia 25.3953
lfoot -22.0182 7.40396
ltoes -12.255
64
root 12.1656 18.2355 5.92662 -177.33 -7.11534 -177.606
lowerback -5.2645 0.943759 -1.09104
upperback 1.11569 1.30092 0.743462
thorax 4.06334 0.609595 1.4928
lowerneck -13.0117 3.40041 -4.03371
upperneck 25.0861 1.88256 10.1131
head 9.91868 1.16521 4.41219
rclavicle 1.95057e-014 -8.94531e-015
rhumerus -40.9463 -18.5638 -84.5143
rradius 31.3855
rwrist 50.9221
rhand -35.0995 -11.6454
rfingers 7.12502
rthumb -8.24083 -41.4647
lclavicle 1.95057e-014 -8.94531e-015
lhumerus -37.2166 -1.99489 90.5074
lradius 24.9317
lwrist -36.2375
lhand -25.1352 13.1564
lfingers 7.12502
lthumb 1.38096 43.1317
rfemur 170.238 63.3942 -163.727
rtibia 27.8039
rfoot -69.2347 -40.0474
rtoes -30.5588
lfemur -9.19032 -7.78403 -16.9394
ltibia 25.4016
lfoot -22.0348 7.35057
ltoes -12.2365
65
root 12.1604 18.2354 5.92054 -177.29 -7.12082 -177.62
lowerback -5.30065 0.902902 -1.17886
upperback 1.11799 1.24858 0.830023
thorax 4.08422 0.579924 1.62787
lowerneck -13.0439 3.414 -4.19433
upperneck 25.1123 1.95893 10.0721
head 9.92461 1.18402 4.43607
rclavicle -2.67614e-014 -8.94531e-015
rhumerus -40.9912 -18.8649 -84.1732
rradius 31.387
rwrist 51.5033
rhand -35.093 -11.5616
rfingers 7.12502
rthumb -8.23456 -41.3811
lclavicle -2.67614e-014 -8.94531e-015
lhumerus -37.2047 -1.77767 90.5736
lradius 24.9372
lwrist -36.3236
lhand -25.1422 13.1402
lfingers 7.12502
lthumb 1.37421 43.1155
rfemur 170.278 63.3987 -163.726
rtibia 27.8004
rfoot -69.226 -40.0638
rtoes -30.7069
lfemur -9.21815 -7.79084 -16.9675
ltibia 25.4103
lfoot -22.0577 7.33143
ltoes -12.2421
